<svg width="31" height="31" viewBox="0 0 31 31" fill="none" xmlns="http://www.w3.org/2000/svg">
<path d="M21.5193 11.6526C21.5193 13.1465 20.9258 14.5793 19.8694 15.6356C18.8131 16.692 17.3803 17.2855 15.8863 17.2855C14.3924 17.2855 12.9596 16.692 11.9033 15.6356C10.8469 14.5793 10.2534 13.1465 10.2534 11.6526C10.2534 10.1586 10.8469 8.72585 11.9033 7.66947C12.9596 6.61309 14.3924 6.01962 15.8863 6.01962C17.3803 6.01962 18.8131 6.61309 19.8694 7.66947C20.9258 8.72585 21.5193 10.1586 21.5193 11.6526V11.6526Z" fill="#363636"/>
<path fill-rule="evenodd" clip-rule="evenodd" d="M0.865234 15.4078C0.865234 11.424 2.44782 7.60329 5.26483 4.78628C8.08184 1.96927 11.9025 0.386688 15.8864 0.386688C19.8702 0.386688 23.6909 1.96927 26.5079 4.78628C29.3249 7.60329 30.9075 11.424 30.9075 15.4078C30.9075 19.3917 29.3249 23.2124 26.5079 26.0294C23.6909 28.8464 19.8702 30.429 15.8864 30.429C11.9025 30.429 8.08184 28.8464 5.26483 26.0294C2.44782 23.2124 0.865234 19.3917 0.865234 15.4078V15.4078ZM15.8864 2.26433C13.4112 2.26446 10.9864 2.9635 8.89104 4.28097C6.79566 5.59845 5.11487 7.48082 4.04214 9.71143C2.96941 11.942 2.54833 14.4302 2.82737 16.8896C3.10641 19.349 4.07423 21.6796 5.61943 23.6131C6.95255 21.4651 9.88731 19.1631 15.8864 19.1631C21.8855 19.1631 24.8183 21.4632 26.1533 23.6131C27.6985 21.6796 28.6664 19.349 28.9454 16.8896C29.2244 14.4302 28.8034 11.942 27.7306 9.71143C26.6579 7.48082 24.9771 5.59845 22.8817 4.28097C20.7863 2.9635 18.3615 2.26446 15.8864 2.26433V2.26433Z" fill="#363636"/>
</svg>
