<svg width="67" height="67" viewBox="0 0 67 67" fill="none" xmlns="http://www.w3.org/2000/svg">
<path d="M27.5262 50.2499C27.1434 50.2487 26.765 50.1688 26.4144 50.0151C26.0638 49.8614 25.7486 49.6373 25.4883 49.3566L11.9208 34.9237C11.4136 34.3832 11.1419 33.6634 11.1655 32.9226C11.189 32.1818 11.5059 31.4806 12.0464 30.9735C12.5869 30.4663 13.3067 30.1946 14.0475 30.2182C14.7883 30.2417 15.4894 30.5586 15.9966 31.0991L27.4983 43.3545L50.9762 17.6712C51.2145 17.3745 51.5109 17.1296 51.8472 16.9517C52.1835 16.7737 52.5527 16.6664 52.932 16.6363C53.3113 16.6061 53.6928 16.6539 54.053 16.7766C54.4132 16.8993 54.7445 17.0943 55.0266 17.3497C55.3087 17.6051 55.5355 17.9155 55.6933 18.2617C55.8511 18.608 55.9364 18.9829 55.944 19.3633C55.9516 19.7438 55.8814 20.1217 55.7376 20.474C55.5938 20.8264 55.3795 21.1455 55.1079 21.412L29.592 49.3287C29.3342 49.6144 29.0201 49.8438 28.6694 50.0023C28.3187 50.1608 27.939 50.2451 27.5541 50.2499H27.5262Z" fill="white"/>
</svg>
