<svg width="31" height="32" viewBox="0 0 31 32" fill="none" xmlns="http://www.w3.org/2000/svg">
<path d="M10.3258 31.6554H3.44194C1.54887 31.6554 0 30.1065 0 28.2134V4.11988C0 2.22682 1.54887 0.677944 3.44194 0.677944H10.3258C12.2189 0.677944 13.7678 2.22682 13.7678 4.11988V28.2134C13.7678 30.1065 12.2189 31.6554 10.3258 31.6554ZM20.6516 31.6554H27.5355C29.4286 31.6554 30.9774 30.1065 30.9774 28.2134V19.6086C30.9774 17.7155 29.4286 16.1667 27.5355 16.1667H20.6516C18.7586 16.1667 17.2097 17.7155 17.2097 19.6086V28.2134C17.2097 30.1065 18.7586 31.6554 20.6516 31.6554ZM30.9774 9.28279V4.11988C30.9774 2.22682 29.4286 0.677944 27.5355 0.677944H20.6516C18.7586 0.677944 17.2097 2.22682 17.2097 4.11988V9.28279C17.2097 11.1759 18.7586 12.7247 20.6516 12.7247H27.5355C29.4286 12.7247 30.9774 11.1759 30.9774 9.28279Z" fill="#949DAC"/>
</svg>
