<svg width="32" height="24" viewBox="0 0 32 24" fill="none" xmlns="http://www.w3.org/2000/svg">
<path d="M30.2629 10.6282C30.9812 11.5676 30.9812 12.8359 30.2629 13.7739C28.0006 16.7272 22.5728 22.8081 16.2359 22.8081C9.89892 22.8081 4.47115 16.7272 2.20882 13.7739C1.85937 13.3241 1.66968 12.7707 1.66968 12.201C1.66968 11.6314 1.85937 11.078 2.20882 10.6282C4.47115 7.67485 9.89892 1.59399 16.2359 1.59399C22.5728 1.59399 28.0006 7.67485 30.2629 10.6282V10.6282Z" stroke="#111111" stroke-width="1.82074" stroke-linecap="round" stroke-linejoin="round"/>
<path d="M16.2358 16.747C18.7464 16.747 20.7817 14.7117 20.7817 12.2011C20.7817 9.69047 18.7464 7.65521 16.2358 7.65521C13.7252 7.65521 11.6899 9.69047 11.6899 12.2011C11.6899 14.7117 13.7252 16.747 16.2358 16.747Z" stroke="#111111" stroke-width="1.82074" stroke-linecap="round" stroke-linejoin="round"/>
</svg>
