<svg width="62" height="62" viewBox="0 0 62 62" fill="none" xmlns="http://www.w3.org/2000/svg">
<path d="M15.5 5.8125C15.5 5.29864 15.2959 4.80583 14.9325 4.44248C14.5692 4.07913 14.0764 3.875 13.5625 3.875C13.0486 3.875 12.5558 4.07913 12.1925 4.44248C11.8291 4.80583 11.625 5.29864 11.625 5.8125V17.4375C11.6245 19.6708 12.3957 21.8356 13.808 23.5656C15.2202 25.2956 17.1869 26.4846 19.375 26.9312V56.1875C19.375 56.7014 19.5791 57.1942 19.9425 57.5575C20.3058 57.9209 20.7986 58.125 21.3125 58.125C21.8264 58.125 22.3192 57.9209 22.6825 57.5575C23.0459 57.1942 23.25 56.7014 23.25 56.1875V26.9312C25.4381 26.4846 27.4048 25.2956 28.817 23.5656C30.2293 21.8356 31.0005 19.6708 31 17.4375V5.8125C31 5.29864 30.7959 4.80583 30.4325 4.44248C30.0692 4.07913 29.5764 3.875 29.0625 3.875C28.5486 3.875 28.0558 4.07913 27.6925 4.44248C27.3291 4.80583 27.125 5.29864 27.125 5.8125V17.4375C27.1256 18.64 26.7533 19.8131 26.0593 20.7952C25.3653 21.7772 24.3837 22.5198 23.25 22.9206V5.8125C23.25 5.29864 23.0459 4.80583 22.6825 4.44248C22.3192 4.07913 21.8264 3.875 21.3125 3.875C20.7986 3.875 20.3058 4.07913 19.9425 4.44248C19.5791 4.80583 19.375 5.29864 19.375 5.8125V22.9206C18.2413 22.5198 17.2597 21.7772 16.5657 20.7952C15.8717 19.8131 15.4994 18.64 15.5 17.4375V5.8125ZM42.625 56.1875V31H36.8125C36.2986 31 35.8058 30.7959 35.4425 30.4325C35.0791 30.0692 34.875 29.5764 34.875 29.0625V13.5625C34.875 10.9934 36.1382 8.59088 37.8626 6.86263C39.5909 5.13825 41.9934 3.875 44.5625 3.875C45.0764 3.875 45.5692 4.07913 45.9325 4.44248C46.2959 4.80583 46.5 5.29864 46.5 5.8125V56.1875C46.5 56.7014 46.2959 57.1942 45.9325 57.5575C45.5692 57.9209 45.0764 58.125 44.5625 58.125C44.0486 58.125 43.5558 57.9209 43.1925 57.5575C42.8291 57.1942 42.625 56.7014 42.625 56.1875Z" fill="white"/>
</svg>
