<svg width="30" height="33" viewBox="0 0 30 33" fill="none" xmlns="http://www.w3.org/2000/svg">
<path d="M28.3308 12.2878C28.3308 10.0924 27.1689 8.06089 25.2766 6.94774L18.3067 2.84779C16.3678 1.70727 13.963 1.70727 12.0242 2.84779L5.05425 6.94774C3.16191 8.06088 2 10.0924 2 12.2878V20.6896C2 22.8851 3.16191 24.9166 5.05425 26.0297L12.0242 30.1297C13.963 31.2702 16.3678 31.2702 18.3067 30.1297L25.2766 26.0297C27.1689 24.9166 28.3308 22.8851 28.3308 20.6896V12.2878Z" stroke="#949DAC" stroke-width="3.09774" stroke-linejoin="round"/>
<path d="M8.96994 18.0376V21.1353M15.1654 14.9398V21.1353V14.9398ZM21.3609 11.8421V21.1353V11.8421Z" stroke="#949DAC" stroke-width="3.09774" stroke-linecap="round" stroke-linejoin="round"/>
</svg>
