<svg width="41" height="28" viewBox="0 0 41 28" fill="none" xmlns="http://www.w3.org/2000/svg">
<path d="M12.8263 14.1667C16.6463 14.1667 19.7381 11.0749 19.7381 7.25486C19.7381 3.43483 16.6463 0.343018 12.8263 0.343018C9.00626 0.343018 5.91445 3.43483 5.91445 7.25486C5.91445 11.0749 9.00626 14.1667 12.8263 14.1667ZM17.5658 16.1415H17.0536C15.77 16.7586 14.3444 17.1289 12.8263 17.1289C11.3082 17.1289 9.88876 16.7586 8.59896 16.1415H8.08674C4.1618 16.1415 0.977417 19.3259 0.977417 23.2508V25.0282C0.977417 26.6636 2.30424 27.9904 3.93963 27.9904H21.7129C23.3483 27.9904 24.6752 26.6636 24.6752 25.0282V23.2508C24.6752 19.3259 21.4908 16.1415 17.5658 16.1415ZM30.5996 14.1667C33.8704 14.1667 36.524 11.513 36.524 8.24227C36.524 4.97148 33.8704 2.31783 30.5996 2.31783C27.3288 2.31783 24.6752 4.97148 24.6752 8.24227C24.6752 11.513 27.3288 14.1667 30.5996 14.1667ZM33.5618 16.1415H33.3273C32.4695 16.4377 31.5623 16.6352 30.5996 16.6352C29.6369 16.6352 28.7297 16.4377 27.8719 16.1415H27.6374C26.3784 16.1415 25.2182 16.5056 24.2 17.0919C25.7058 18.7149 26.65 20.8687 26.65 23.2508V25.6206C26.65 25.7564 26.6191 25.886 26.6129 26.0156H37.5114C39.1468 26.0156 40.4737 24.6887 40.4737 23.0534C40.4737 19.2333 37.3818 16.1415 33.5618 16.1415V16.1415Z" fill="#949DAC"/>
</svg>
