<svg width="23" height="23" viewBox="0 0 23 23" fill="none" xmlns="http://www.w3.org/2000/svg">
<path d="M18.0611 1.04548L22.0549 5.03932C22.1858 5.16903 22.2897 5.32325 22.3609 5.49318C22.432 5.6631 22.469 5.84539 22.4696 6.02961C22.4702 6.21383 22.4345 6.39637 22.3646 6.56678C22.2946 6.73718 22.1917 6.89212 22.0617 7.02271L19.8414 9.24302L13.8642 3.26579L16.0845 1.04548C16.3471 0.78423 16.7024 0.637573 17.0728 0.637573C17.4432 0.637573 17.7985 0.78423 18.0611 1.04548Z" fill="#499FB7"/>
<path d="M0.731893 20.6627L2.01805 15.112L12.6999 4.41659L18.6839 10.3871L7.96143 21.0689L2.37682 22.3551C2.28004 22.3648 2.18252 22.3648 2.08574 22.3551C1.87804 22.3538 1.67324 22.3062 1.48631 22.2156C1.29937 22.1251 1.13503 21.9939 1.00528 21.8317C0.875525 21.6695 0.783643 21.4804 0.736344 21.2782C0.689046 21.0759 0.687525 20.8657 0.731893 20.6627Z" fill="#499FB7"/>
</svg>
