<svg width="21" height="23" viewBox="0 0 21 23" fill="none" xmlns="http://www.w3.org/2000/svg">
<path fill-rule="evenodd" clip-rule="evenodd" d="M0.755529 4.35273C0.106721 10.3176 1.99036 14.7616 4.26188 17.7321C5.25474 19.0422 6.43856 20.196 7.77381 21.1548C8.31239 21.5357 8.81191 21.8273 9.23607 22.0268C9.62675 22.211 10.0467 22.3617 10.3928 22.3617C10.7388 22.3617 11.1574 22.211 11.5495 22.0268C12.0608 21.7783 12.55 21.4865 13.0117 21.1548C13.8881 20.5297 14.6983 19.8168 15.4297 19.0269L14.3903 17.9875C13.7248 18.7085 12.987 19.3594 12.1885 19.9297C11.7057 20.2701 11.2788 20.5157 10.9425 20.6734C10.7751 20.7529 10.6383 20.8059 10.5337 20.838C10.4879 20.8541 10.4407 20.8658 10.3928 20.8729C10.3454 20.8652 10.2987 20.8535 10.2532 20.838C10.1129 20.7924 9.9759 20.7374 9.84302 20.6734C9.40741 20.4612 8.99059 20.2124 8.59703 19.9297C7.3837 19.0564 6.30809 18.0061 5.40601 16.814C3.49029 14.3081 1.85222 10.6329 2.10477 5.70197L0.755529 4.35273V4.35273ZM4.78372 2.79977L3.59493 1.61099C4.49446 1.33083 5.39874 1.06615 6.30737 0.817074C7.82125 0.408255 9.43002 0.0371094 10.3928 0.0371094C11.3555 0.0371094 12.9643 0.40686 14.4782 0.818469C16.0269 1.23705 17.5883 1.73238 18.5063 2.03237C18.8902 2.15913 19.2305 2.3916 19.4882 2.70308C19.7459 3.01456 19.9104 3.39241 19.963 3.79322C20.637 8.85252 19.4998 12.85 17.7989 15.815L16.7246 14.7406C18.1785 12.0687 19.1245 8.5051 18.5245 3.99414C18.5068 3.86929 18.4541 3.75198 18.3727 3.65571C18.2912 3.55945 18.1842 3.48813 18.064 3.44998C17.1571 3.15278 15.6223 2.66862 14.107 2.25701C12.5582 1.83703 11.1337 1.52588 10.3928 1.52588C9.65326 1.52588 8.22728 1.83703 6.67851 2.25701C6.04484 2.42942 5.41364 2.61083 4.78511 2.80117L4.78372 2.79977ZM18.2705 20.065L0.131836 1.92633L1.1197 0.938464L19.2584 19.0772L18.2719 20.0636L18.2705 20.065Z" fill="#111111"/>
</svg>
