<svg width="76" height="56" viewBox="0 0 76 56" fill="none" xmlns="http://www.w3.org/2000/svg">
<path d="M35.7517 12.6182C38.0747 12.6182 39.9578 10.7351 39.9578 8.41213C39.9578 6.08918 38.0747 4.20605 35.7517 4.20605C33.4288 4.20605 31.5457 6.08918 31.5457 8.41213C31.5457 10.7351 33.4288 12.6182 35.7517 12.6182Z" fill="white"/>
<path d="M33.1796 23.0683C33.6624 23.7877 34.3549 24.3411 35.163 24.6534C35.9712 24.9657 36.8559 25.0217 37.697 24.8138L44.6706 23.0704L43.6549 18.9905L36.6812 20.7339L33.7811 16.387C33.1615 15.4586 32.1999 14.813 31.106 14.591L23.0177 12.9716C22.1129 12.79 21.1734 12.9114 20.3444 13.3169C19.5154 13.7225 18.843 14.3897 18.431 15.2156L14.9442 22.1892L18.7065 24.0715L22.1933 17.0957L26.33 17.9243L15.634 35.7517H6.30908V39.9578H15.634C17.1019 39.9578 18.4836 39.1755 19.2407 37.9158L23.2743 31.1945L34.1449 33.369L37.964 44.8285L41.9514 43.4972L38.1344 32.0399C37.8988 31.3365 37.482 30.7075 36.926 30.2165C36.37 29.7254 35.6944 29.3896 34.9672 29.2428L28.5761 27.9663L32.3027 21.7539L33.1796 23.0683V23.0683Z" fill="white"/>
<path d="M60.9881 18.0748C63.311 18.0748 65.1941 16.1916 65.1941 13.8687C65.1941 11.5457 63.311 9.6626 60.9881 9.6626C58.6651 9.6626 56.782 11.5457 56.782 13.8687C56.782 16.1916 58.6651 18.0748 60.9881 18.0748Z" fill="white"/>
<path d="M58.4162 28.5249C58.899 29.2443 59.5915 29.7977 60.3996 30.1099C61.2078 30.4222 62.0924 30.4782 62.9335 30.2704L69.9072 28.527L68.8914 24.4471L61.9178 26.1905L59.0177 21.8435C58.3981 20.9151 57.4364 20.2695 56.3426 20.0475L48.2543 18.4282C47.3495 18.2466 46.41 18.3679 45.581 18.7735C44.752 19.1791 44.0796 19.8463 43.6676 20.6721L40.1807 27.6458L43.9431 29.528L47.4299 22.5522L51.5666 23.3808L40.8705 41.2083H31.5457V45.4144H40.8705C42.3385 45.4144 43.7202 44.632 44.4772 43.3723L48.5109 36.651L59.3815 38.8255L63.2006 50.285L67.188 48.9538L63.371 37.4964C63.1354 36.793 62.7186 36.1641 62.1626 35.673C61.6066 35.182 60.9309 34.8462 60.2038 34.6994L53.8126 33.4228L57.5392 27.2105L58.4162 28.5249V28.5249Z" fill="white"/>
</svg>
