<svg width="37" height="35" viewBox="0 0 37 35" fill="none" xmlns="http://www.w3.org/2000/svg">
<path fill-rule="evenodd" clip-rule="evenodd" d="M8.83168 2.47335C8.37137 2.22051 8.03273 1.76437 8.03273 1.23919C8.03273 0.554806 7.47793 0 6.79354 0H5.65781C4.97347 0 4.4187 0.55477 4.4187 1.23911C4.4187 1.76428 4.08005 2.22041 3.61974 2.47322C1.94183 3.39474 0.804535 5.17857 0.804535 7.22804C0.804535 11.228 4.4187 15.015 4.4187 19.0149V32.5263C4.4187 33.5243 5.22773 34.3333 6.22571 34.3333C7.2237 34.3333 8.03273 33.5243 8.03273 32.5263V19.0146C8.03273 15.0148 11.6466 11.2278 11.6466 7.22804C11.6466 5.17867 10.5095 3.39491 8.83168 2.47335ZM6.22559 5.42102C7.22358 5.42102 8.0326 6.23005 8.0326 7.22804C8.0326 8.22603 7.22358 9.03506 6.22559 9.03506C5.2276 9.03506 4.41857 8.22603 4.41857 7.22804C4.41857 6.23005 5.2276 5.42102 6.22559 5.42102Z" fill="#949DAC"/>
<path fill-rule="evenodd" clip-rule="evenodd" d="M20.6819 1.80702C20.6819 0.80903 19.8728 0 18.8748 0C17.8768 0 17.0678 0.809029 17.0678 1.80702V13.5115C17.0678 17.5114 13.4538 21.2984 13.4538 25.2982C13.4538 27.3477 14.591 29.1314 16.2688 30.053C16.7292 30.3058 17.0678 30.762 17.0678 31.2871C17.0678 31.9715 17.6226 32.5263 18.307 32.5263H19.4427C20.1271 32.5263 20.6819 31.9715 20.6819 31.2871C20.6819 30.762 21.0205 30.3058 21.4808 30.053C23.1587 29.1315 24.2959 27.3477 24.2959 25.2982C24.2959 21.2984 20.6819 17.5114 20.6819 13.5115V1.80702ZM20.6819 25.2982C20.6819 24.3003 19.8728 23.4912 18.8748 23.4912C17.8768 23.4912 17.0678 24.3003 17.0678 25.2982C17.0678 26.2962 17.8768 27.1053 18.8748 27.1053C19.8728 27.1053 20.6819 26.2962 20.6819 25.2982Z" fill="#949DAC"/>
<path fill-rule="evenodd" clip-rule="evenodd" d="M33.331 1.80702C33.331 0.80903 32.522 0 31.524 0C30.526 0 29.7169 0.809032 29.7169 1.80702V3.35613C29.7169 4.77852 28.7346 5.98088 27.721 6.97875C26.7222 7.96205 26.1028 9.32977 26.1028 10.8421C26.1028 14.842 29.7169 18.629 29.7169 22.6289V30.7193C29.7169 31.7173 30.526 32.5263 31.524 32.5263C32.522 32.5263 33.331 31.7173 33.331 30.7193V22.6287C33.331 18.6289 36.945 14.842 36.945 10.8421C36.945 9.32981 36.3257 7.96213 35.3269 6.97883C34.3133 5.98094 33.331 4.77858 33.331 3.35619V1.80702ZM31.5239 9.03512C32.5219 9.03512 33.3309 9.84415 33.3309 10.8421C33.3309 11.8401 32.5219 12.6492 31.5239 12.6492C30.5259 12.6492 29.7169 11.8401 29.7169 10.8421C29.7169 9.84415 30.5259 9.03512 31.5239 9.03512Z" fill="#949DAC"/>
</svg>
