<svg width="17" height="17" viewBox="0 0 17 17" fill="none" xmlns="http://www.w3.org/2000/svg">
<path d="M8.16 0C5.99583 0 3.92031 0.859712 2.39001 2.39001C0.859712 3.92031 0 5.99583 0 8.16C5.57892e-05 9.23159 0.211176 10.2927 0.621306 11.2827C1.03144 12.2727 1.63254 13.1722 2.39031 13.9299C3.14807 14.6876 4.04766 15.2886 5.0377 15.6986C6.02773 16.1086 7.08884 16.3196 8.16043 16.3196C9.23201 16.3195 10.2931 16.1084 11.2831 15.6983C12.2731 15.2881 13.1726 14.687 13.9303 13.9293C14.688 13.1715 15.289 12.2719 15.699 11.2819C16.109 10.2918 16.3201 9.23074 16.32 8.15915C16.32 3.6533 12.6658 0 8.16 0ZM8.16 14.6192C7.30548 14.629 6.45751 14.4691 5.6652 14.1489C4.87289 13.8287 4.152 13.3544 3.54426 12.7536C2.93653 12.1528 2.45405 11.4374 2.12475 10.6488C1.79546 9.86023 1.6259 9.01415 1.6259 8.15958C1.6259 7.305 1.79546 6.45892 2.12475 5.67034C2.45405 4.88175 2.93653 4.16634 3.54426 3.56554C4.152 2.96474 4.87289 2.49049 5.6652 2.17027C6.45751 1.85004 7.30548 1.6902 8.16 1.7C9.01452 1.6902 9.86249 1.85004 10.6548 2.17027C11.4471 2.49049 12.168 2.96474 12.7757 3.56554C13.3835 4.16634 13.866 4.88175 14.1952 5.67034C14.5245 6.45892 14.6941 7.305 14.6941 8.15958C14.6941 9.01415 14.5245 9.86023 14.1952 10.6488C13.866 11.4374 13.3835 12.1528 12.7757 12.7536C12.168 13.3544 11.4471 13.8287 10.6548 14.1489C9.86249 14.4691 9.01452 14.629 8.16 14.6192ZM6.03585 7.9475C6.73965 7.9475 7.31 7.28195 7.31 6.46C7.31 5.63805 6.7388 4.9725 6.035 4.9725C5.3312 4.9725 4.76 5.63805 4.76 6.46C4.76 7.28195 5.3312 7.9475 6.03585 7.9475ZM10.285 7.9475C10.9896 7.9475 11.56 7.28195 11.56 6.46C11.56 5.63805 10.9888 4.9725 10.285 4.9725C9.5812 4.9725 9.01 5.6389 9.01 6.46C9.01 7.2811 9.5812 7.9475 10.285 7.9475ZM11.8498 9.2956C11.6998 9.21992 11.5261 9.206 11.366 9.25685C11.2058 9.30769 11.0719 9.41924 10.993 9.5676C10.9642 9.6237 10.2544 10.9216 8.16085 10.9216C6.0775 10.9216 5.3635 9.6356 5.3278 9.56845C5.25138 9.41752 5.11813 9.30313 4.95737 9.25045C4.79661 9.19777 4.6215 9.2111 4.47057 9.28753C4.31965 9.36395 4.20526 9.4972 4.15258 9.65796C4.09989 9.81872 4.11323 9.99382 4.18965 10.1448C4.23215 10.2289 5.25045 12.1967 8.16085 12.1967C11.0721 12.1967 12.0887 10.2281 12.1303 10.1439C12.2052 9.99414 12.2178 9.82082 12.1652 9.66185C12.1126 9.50287 11.9993 9.37119 11.8498 9.2956Z" fill="#F49E4C"/>
</svg>
