<svg width="390" height="439" viewBox="0 0 390 439" fill="none" xmlns="http://www.w3.org/2000/svg">
<g clip-path="url(#clip0_21_39)">
<path d="M0 0H390V394C390 418.853 369.853 439 345 439H45C20.1472 439 0 418.853 0 394V0Z" fill="url(#paint0_linear_21_39)"/>
<rect width="390" height="90" fill="url(#paint1_linear_21_39)" fill-opacity="0.35"/>
<rect x="-30" y="262" width="426" height="177" fill="url(#paint2_linear_21_39)"/>
<rect x="205" y="397" width="390" height="10" fill="#C5DFEB" fill-opacity="0.5"/>
<path d="M242.5 322L-8 338.5L-65 471H72.5C76.3333 467.167 115.7 446 242.5 392C369.3 338 295.333 322.833 242.5 322Z" fill="#3C8BAC"/>
<path d="M273 131.5L196 144.5V160L176.5 174.5L168 164.5L149 169L140 221.5L79 246H136.5H547.5V194L450.5 174.5H433L357.5 131.5H273Z" fill="url(#paint3_linear_21_39)"/>
<path d="M231 136.5L196 145V147L277.5 131L359.5 134.5L432.5 173L374 129L249 125L231 136.5Z" fill="white"/>
<path d="M182 187L170.5 167L169.5 166L178.5 186.5L177.5 229L182 187Z" fill="white"/>
<path d="M204.155 160.37L208.81 147.5L214.5 246.5H199.5L204.155 160.37Z" fill="white"/>
<path d="M216 163.5L223.5 146V207.5L216 163.5Z" fill="white"/>
<path d="M240.5 204L235 139.5L241.5 138.5L240.5 204Z" fill="#B4D2DE"/>
<path d="M218 194.5L229.5 246.5H213.5L218 194.5Z" fill="#A7CCDE"/>
<path d="M273.5 181.5L267.5 132L273.5 130.5V181.5Z" fill="#B3D5E3"/>
<path d="M272.5 180.5L263.5 246.5H275.5L272.5 180.5Z" fill="#8CBBCE"/>
<path d="M283 181.5L288.5 131H283V181.5Z" fill="white"/>
<path d="M306 141.5L299.5 246.5H318.5L312 141.5H306Z" fill="#D0E4ED"/>
<path d="M335.5 246.5L342.151 159.5L351.872 187.533L357.5 246.5H335.5Z" fill="#9DC6DA"/>
<path d="M377 160.5L370.5 154H378.5L382 159.5L389.5 183V251.5L384 183L377 160.5Z" fill="#D8E9F0"/>
<path d="M141.5 219L148.5 170.5L154 169L141.5 219Z" fill="white"/>
<path d="M154.5 219L162.5 167.5L169 165L166.5 192.5L154.5 219Z" fill="white"/>
<path d="M306 169L296 131.5H314L306 169Z" fill="white"/>
<path d="M338 196L342 182L346.5 199L340.5 219L338 196Z" fill="white"/>
<path d="M110 310L-21 321.5V372L81 380.5L235 354L255.5 332L202.5 321.5L110 310Z" fill="#B0D1DD"/>
<path d="M-293 410V390.976L-286.12 370.049L54.4237 366.244L274 340.561V358.634L219.536 379.561L183.991 383.366L122.074 406.195H-56.2245L-224.203 390.976L-293 410Z" fill="#90C2D9"/>
<path d="M-224.203 376.707L-292.427 391.927V332L54.4236 341.512H272.853L219.536 356.732L185.711 363.39L122.074 388.122H-56.7978L-224.203 376.707Z" fill="#F0F8FB"/>
<path d="M-43.6118 406.195V388.122H67.0363V406.195H-43.6118Z" fill="#BBD8E5"/>
<path d="M91.115 406.195H67.0361V388.122H91.115V406.195Z" fill="#D6EAF1"/>
<path d="M122.074 388.122V406.195L183.991 383.366V364.341L122.074 388.122Z" fill="#CCE5EC"/>
<path d="M192.017 361.488L183.991 364.341V382.415H192.017V361.488Z" fill="#A8CDE0"/>
<path d="M218.962 356.732V379.561L192.017 384.317V362.439L218.962 356.732Z" fill="#E1EFF4"/>
<path d="M223.5 284.5L-1 268.5V245H414.5V353H391L223.5 284.5Z" fill="url(#paint4_linear_21_39)"/>
<path d="M313 263.5L298.5 261.5L305.5 276.5L323.5 280.5L322.5 270.5L313 263.5Z" fill="#8EB5C9" fill-opacity="0.38"/>
<path d="M337.5 284L324 285L330 297L343.5 300L357.5 296L337.5 284Z" fill="#8EB5C9" fill-opacity="0.38"/>
<path d="M327.792 269.951C324.875 261.201 333.333 260.91 335.375 263.243L334.208 270.535L337.417 278.993L328.375 285.118H324L324.583 283.66C324.35 276.426 326.625 271.507 327.792 269.951Z" fill="#413D40"/>
<path d="M330.417 262.66C332.75 261.96 333.917 262.757 334.209 263.243C336.775 265.11 336.056 268.493 335.375 269.951C338.875 273.344 337.611 280.504 336.542 283.66C334.5 284.34 330.009 285.585 328.375 285.118C326.742 284.651 327.111 283.173 327.5 282.493L331.875 275.785C332.575 278.818 335.278 278.993 336.542 278.701C336.775 275.668 334.5 272.771 333.334 271.701C334.5 267.268 331.875 265.771 330.417 265.576V262.66Z" fill="#F1F6F3"/>
<path d="M335.612 265.583C334.033 265.776 334.016 264.304 334.208 263.535L338 263.243L335.612 265.583Z" fill="#E97F5C"/>
<path d="M329.25 285.41V283.951V283.66H329.833V284.826L332.458 285.701C332.069 285.799 331.175 286.11 330.708 286.576C330.242 287.043 329.153 285.993 328.667 285.41H329.25Z" fill="#E97F5C"/>
<path d="M332.75 284.535L333.333 283.66L333.917 284.243L334.792 284.535L335.667 285.41L334.208 285.701L332.75 284.535Z" fill="#E97F5C"/>
<circle cx="333.042" cy="263.826" r="0.291667" fill="#413D40"/>
<path d="M309.396 245.655C312.938 235.03 302.667 234.676 300.187 237.509L301.604 246.363L297.708 256.634L308.688 264.072H314L313.292 262.301C313.575 253.518 310.812 247.544 309.396 245.655Z" fill="#413D40"/>
<path d="M306.208 236.801C303.375 235.951 301.958 236.919 301.604 237.509C298.488 239.776 299.361 243.884 300.188 245.655C295.938 249.775 297.472 258.469 298.771 262.301C301.25 263.127 306.704 264.639 308.688 264.072C310.671 263.505 310.222 261.711 309.75 260.884L304.438 252.739C303.588 256.422 300.306 256.634 298.771 256.28C298.488 252.597 301.25 249.079 302.667 247.78C301.25 242.397 304.438 240.579 306.208 240.343V236.801Z" fill="#F1F6F3"/>
<path d="M299.899 240.351C301.817 240.585 301.838 238.797 301.604 237.863L297 237.509L299.899 240.351Z" fill="#E97F5C"/>
<path d="M307.625 264.426V262.655V262.301H306.917V263.718L303.729 264.78C304.202 264.898 305.288 265.276 305.854 265.843C306.421 266.409 307.743 265.134 308.333 264.426H307.625Z" fill="#E97F5C"/>
<path d="M303.375 263.364L302.667 262.301L301.958 263.009L300.896 263.364L299.833 264.426L301.604 264.78L303.375 263.364Z" fill="#E97F5C"/>
<circle r="0.354167" transform="matrix(-1 0 0 1 303.021 238.218)" fill="#413D40"/>
<circle cx="57" cy="66" r="35" fill="white"/>
<path d="M229 279.5L-0.5 263.5V273.5L229 290L398 363.5V351.5L229 279.5Z" fill="#B1D6E9"/>
<path d="M68.5 200.968C56.9 191.768 15.3333 206.135 -4 214.468V251.468L195 246.968C120 233.468 83 212.468 68.5 200.968Z" fill="url(#paint5_linear_21_39)"/>
<path d="M49.5 207.5L10.5 251.5L122 248.5L110 221.5H90.5L77 195L49.5 207.5Z" fill="#CCE4EB"/>
<path d="M61.5 251L56.5 220L52.5 251H61.5Z" fill="#EFF7FA"/>
<path d="M79 250L77 198L92 221.5V250H79Z" fill="white"/>
<path d="M97 248.5L98.5 223H100H103.5L108.5 248.5H97Z" fill="#C1DBE8"/>
</g>
<defs>
<linearGradient id="paint0_linear_21_39" x1="195" y1="0" x2="195" y2="439" gradientUnits="userSpaceOnUse">
<stop stop-color="#90BFD3"/>
<stop offset="1" stop-color="#90BFD3" stop-opacity="0"/>
</linearGradient>
<linearGradient id="paint1_linear_21_39" x1="195" y1="0" x2="195" y2="90" gradientUnits="userSpaceOnUse">
<stop stop-color="#E1EFF4"/>
<stop offset="1" stop-color="#A6CCDA" stop-opacity="0.8"/>
</linearGradient>
<linearGradient id="paint2_linear_21_39" x1="183" y1="262" x2="183" y2="439" gradientUnits="userSpaceOnUse">
<stop stop-color="#3480A2"/>
<stop offset="1" stop-color="#5F9EBA"/>
</linearGradient>
<linearGradient id="paint3_linear_21_39" x1="313.25" y1="131.5" x2="313.25" y2="246" gradientUnits="userSpaceOnUse">
<stop stop-color="#D7E9EA"/>
<stop offset="1" stop-color="#B2D6E4"/>
</linearGradient>
<linearGradient id="paint4_linear_21_39" x1="206.75" y1="245" x2="206.75" y2="353" gradientUnits="userSpaceOnUse">
<stop stop-color="#CEE6F2"/>
<stop offset="0.0001" stop-color="#CEE4F1"/>
<stop offset="0.0291665" stop-color="#E9EFF3"/>
<stop offset="0.95625" stop-color="#A2D3F0"/>
</linearGradient>
<linearGradient id="paint5_linear_21_39" x1="95.5" y1="198" x2="95.5" y2="251.468" gradientUnits="userSpaceOnUse">
<stop stop-color="#95C4DA"/>
<stop offset="1" stop-color="#569CBB"/>
</linearGradient>
<clipPath id="clip0_21_39">
<path d="M0 0H390V394C390 418.853 369.853 439 345 439H45C20.1472 439 0 418.853 0 394V0Z" fill="white"/>
</clipPath>
</defs>
</svg>
