<svg width="390" height="844" viewBox="0 0 390 844" fill="none" xmlns="http://www.w3.org/2000/svg">
<g clip-path="url(#clip0_24_156)">
<rect width="390" height="844" fill="white"/>
<g filter="url(#filter0_d_24_156)">
<path d="M25.4816 918.107C330.763 904.618 485.876 1084.16 473.855 1167.53C473.593 1169.34 477.181 1170.57 478.217 1169.06C663.043 899.152 244.679 846.526 24.6911 915.191C22.9636 915.73 23.6729 918.187 25.4816 918.107Z" fill="url(#paint0_linear_24_156)"/>
<path d="M-200.469 539.82C-193.431 686.924 -93.0686 737.456 -91.1506 739.082C-176.23 809.086 -235.691 792.401 -249.74 781.094C-250.523 780.463 -251.048 779.589 -251.356 778.628C-278.518 694.123 -265.046 603.9 -241.023 531.934C-232.889 507.566 -201.658 514.961 -200.469 539.82Z" fill="url(#paint1_linear_24_156)"/>
<path d="M66.1595 909.163C610.766 844.399 519.633 1087.18 516.275 1096.13C726.08 590.084 300.088 751.159 64.196 905.026C62.137 906.369 63.716 909.454 66.1595 909.163Z" fill="url(#paint2_linear_24_156)"/>
<path d="M281.49 837.041C417.487 781.788 519.996 806.258 566.446 829.247C566.991 831.2 568.267 830.148 566.446 829.247C533.316 710.449 414.252 499.448 181.481 635.354C-60.0468 776.371 -207.984 746.575 -278.749 720.378C-285.96 717.708 -292.316 724.726 -288.131 731.165C-264.01 768.284 -207.272 893.204 -122.713 939.556C27.4934 1021.89 118.701 903.178 281.49 837.041Z" fill="url(#paint3_linear_24_156)"/>
<path d="M98.1756 721.836C349.716 594.747 526.728 753.115 566.446 829.247C517.904 783.223 357.88 697.701 183.769 815.494C-28.3663 959.013 -168.867 814.616 -230.055 754.147C-230.055 754.147 -112.563 828.309 98.1756 721.836Z" fill="url(#paint4_linear_24_156)"/>
<path d="M132.835 779.825C-101.372 885.49 -188.478 821.336 -231.566 794.946C-164.549 806.372 -37.9069 762.668 155.335 639.579C404.554 480.834 572.148 696.941 568.163 835.322C568.163 835.322 357.509 678.461 132.835 779.825Z" fill="url(#paint5_linear_24_156)"/>
<path d="M-5.6156 1173.23C299.666 1159.74 454.779 1339.29 442.758 1422.65C442.496 1424.47 446.083 1425.7 447.12 1424.18C631.946 1154.28 213.582 1101.65 -6.40614 1170.32C-8.13362 1170.86 -7.42426 1173.31 -5.6156 1173.23Z" fill="url(#paint6_linear_24_156)"/>
<path d="M-231.566 794.946C-224.528 942.05 -124.166 992.582 -122.248 994.208C-207.327 1064.21 -266.788 1047.53 -280.837 1036.22C-281.62 1035.59 -282.145 1034.71 -282.454 1033.75C-309.615 949.249 -296.144 859.026 -272.12 787.06C-263.986 762.692 -232.755 770.087 -231.566 794.946Z" fill="url(#paint7_linear_24_156)"/>
<path d="M35.0623 1164.29C579.669 1099.53 488.536 1342.31 485.178 1351.25C694.983 845.21 268.99 1006.29 33.0988 1160.15C31.0399 1161.49 32.6188 1164.58 35.0623 1164.29Z" fill="url(#paint8_linear_24_156)"/>
<path d="M250.392 1092.17C386.39 1036.91 485.545 1064.01 531.994 1087C533.815 1087.9 535.893 1086.33 535.349 1084.37C502.219 965.575 383.154 754.574 150.383 890.48C-91.144 1031.5 -239.081 1001.7 -309.846 975.504C-317.057 972.834 -323.413 979.852 -319.228 986.291C-295.108 1023.41 -237.513 1094.95 -152.954 1141.3C-2.74755 1223.64 87.6043 1158.3 250.392 1092.17Z" fill="url(#paint9_linear_24_156)"/>
<path d="M72.1664 958.394C323.707 831.305 497.001 1013.29 536.719 1089.42C488.177 1043.39 331.871 934.259 157.76 1052.05C-54.3755 1195.57 -194.876 1051.17 -256.064 990.705C-256.064 990.705 -138.572 1064.87 72.1664 958.394Z" fill="url(#paint10_linear_24_156)"/>
<path d="M109.951 976.187C-124.256 1081.85 -211.362 1017.7 -254.45 991.308C-187.433 1002.73 -69.004 1017.79 124.238 894.705C373.457 735.96 541.051 952.067 537.066 1090.45C537.066 1090.45 334.625 874.823 109.951 976.187Z" fill="url(#paint11_linear_24_156)"/>
</g>
</g>
<defs>
<filter id="filter0_d_24_156" x="-331.275" y="511.622" width="903.953" height="918.6" filterUnits="userSpaceOnUse" color-interpolation-filters="sRGB">
<feFlood flood-opacity="0" result="BackgroundImageFix"/>
<feColorMatrix in="SourceAlpha" type="matrix" values="0 0 0 0 0 0 0 0 0 0 0 0 0 0 0 0 0 0 127 0" result="hardAlpha"/>
<feOffset dx="-5.35628"/>
<feGaussianBlur stdDeviation="2.67814"/>
<feComposite in2="hardAlpha" operator="out"/>
<feColorMatrix type="matrix" values="0 0 0 0 0 0 0 0 0 0 0 0 0 0 0 0 0 0 0.25 0"/>
<feBlend mode="normal" in2="BackgroundImageFix" result="effect1_dropShadow_24_156"/>
<feBlend mode="normal" in="SourceGraphic" in2="effect1_dropShadow_24_156" result="shape"/>
</filter>
<linearGradient id="paint0_linear_24_156" x1="-334.209" y1="908.284" x2="559.56" y2="1049" gradientUnits="userSpaceOnUse">
<stop stop-color="#F49E4C"/>
<stop offset="1" stop-color="#0A9396"/>
</linearGradient>
<linearGradient id="paint1_linear_24_156" x1="-321.654" y1="887.724" x2="469.113" y2="1012.22" gradientUnits="userSpaceOnUse">
<stop stop-color="#F0D27C"/>
<stop offset="1" stop-color="#C75A22"/>
</linearGradient>
<linearGradient id="paint2_linear_24_156" x1="-315.624" y1="892.542" x2="561.12" y2="1030.58" gradientUnits="userSpaceOnUse">
<stop stop-color="#001219"/>
<stop offset="1" stop-color="#6C6C6C"/>
</linearGradient>
<linearGradient id="paint3_linear_24_156" x1="-361.143" y1="1177.34" x2="548.876" y2="1256.29" gradientUnits="userSpaceOnUse">
<stop stop-color="#1A2636"/>
<stop offset="1" stop-color="#545D66"/>
</linearGradient>
<linearGradient id="paint4_linear_24_156" x1="-317.047" y1="881.442" x2="550.377" y2="1018.01" gradientUnits="userSpaceOnUse">
<stop stop-color="#121C27"/>
<stop offset="1" stop-color="#7F8B9B"/>
</linearGradient>
<linearGradient id="paint5_linear_24_156" x1="-321.132" y1="879.513" x2="569.981" y2="1019.81" gradientUnits="userSpaceOnUse">
<stop stop-color="#313E4E"/>
<stop offset="1" stop-color="#949DAC"/>
</linearGradient>
<linearGradient id="paint6_linear_24_156" x1="-334.209" y1="908.284" x2="559.56" y2="1049" gradientUnits="userSpaceOnUse">
<stop stop-color="#F49E4C"/>
<stop offset="1" stop-color="#0A9396"/>
</linearGradient>
<linearGradient id="paint7_linear_24_156" x1="-321.654" y1="887.724" x2="469.113" y2="1012.22" gradientUnits="userSpaceOnUse">
<stop stop-color="#F0D27C"/>
<stop offset="1" stop-color="#C75A22"/>
</linearGradient>
<linearGradient id="paint8_linear_24_156" x1="-315.624" y1="892.542" x2="561.12" y2="1030.58" gradientUnits="userSpaceOnUse">
<stop stop-color="#001219"/>
<stop offset="1" stop-color="#6C6C6C"/>
</linearGradient>
<linearGradient id="paint9_linear_24_156" x1="-361.143" y1="1177.34" x2="548.876" y2="1256.29" gradientUnits="userSpaceOnUse">
<stop stop-color="#1A2636"/>
<stop offset="1" stop-color="#545D66"/>
</linearGradient>
<linearGradient id="paint10_linear_24_156" x1="-317.047" y1="881.442" x2="550.377" y2="1018.01" gradientUnits="userSpaceOnUse">
<stop stop-color="#121C27"/>
<stop offset="1" stop-color="#7F8B9B"/>
</linearGradient>
<linearGradient id="paint11_linear_24_156" x1="-321.132" y1="879.513" x2="569.981" y2="1019.81" gradientUnits="userSpaceOnUse">
<stop stop-color="#313E4E"/>
<stop offset="1" stop-color="#949DAC"/>
</linearGradient>
<clipPath id="clip0_24_156">
<rect width="390" height="844" fill="white"/>
</clipPath>
</defs>
</svg>
